<svg id="Capa_1" enable-background="new 0 0 512 512" height="512" viewBox="0 0 512 512" width="512" xmlns="http://www.w3.org/2000/svg" xmlns:xlink="http://www.w3.org/1999/xlink"><linearGradient id="SVGID_1_" gradientUnits="userSpaceOnUse" x1="141.395" x2="423.014" y1="370.606" y2="88.986"><stop offset="0" stop-color="#addcff"/><stop offset=".5028" stop-color="#eaf6ff"/><stop offset="1" stop-color="#eaf6ff"/></linearGradient><linearGradient id="SVGID_2_" gradientUnits="userSpaceOnUse" x1="25.606" x2="454.776" y1="486.395" y2="57.225"><stop offset="0" stop-color="#5558ff"/><stop offset="1" stop-color="#00c0ff"/></linearGradient><g><g><g><path d="m317 45c-82.705 0-150 67.295-150 150s67.295 150 150 150 150-67.295 150-150-67.295-150-150-150zm-137.871 266.675-37.734 37.72c-5.859 5.859-5.859 15.352 0 21.211 5.859 5.86 15.352 5.859 21.211 0l37.734-37.72c5.859-5.859 5.859-15.352 0-21.211s-15.352-5.86-21.211 0z" fill="url(#SVGID_1_)"/></g></g><g><g><path d="m317 0c-107.402 0-195 87.599-195 195s87.598 195 195 195 195-87.599 195-195-87.598-195-195-195zm0 330c-74.399 0-135-60.601-135-135s60.601-135 135-135 135 60.601 135 135-60.601 135-135 135zm-175.605-1.816c-5.859-5.859-15.352-5.859-21.211 0l-115.789 115.789c-5.859 5.859-5.859 15.352 0 21.211l42.422 42.422c5.86 5.859 15.352 5.859 21.211 0l115.789-115.789c5.859-5.859 5.859-15.352 0-21.211z" fill="url(#SVGID_2_)"/></g></g></g></svg>